<svg xmlns="http://www.w3.org/2000/svg" width="800" height="440" viewBox="0 0 800 440">
  <defs>
    <linearGradient id="bg2" x1="0%" y1="0%" x2="100%" y2="100%">
      <stop offset="0%" style="stop-color:#0d1117"/>
      <stop offset="100%" style="stop-color:#0c1a2e"/>
    </linearGradient>
  </defs>
  <rect width="800" height="440" fill="url(#bg2)"/>
  <rect x="0" y="0" width="800" height="56" fill="#161b22" opacity="0.9"/>
  <text x="28" y="36" font-family="monospace" font-size="16" fill="#38bdf8" font-weight="700">FORECAST-AUDIT</text>
  <text x="195" y="36" font-family="monospace" font-size="13" fill="#6e7681">— OpenEnv Benchmark · 33 Episodes</text>
  <rect x="680" y="16" width="96" height="24" rx="4" fill="#0ea5e9" opacity="0.2"/>
  <text x="728" y="32" text-anchor="middle" font-family="monospace" font-size="11" fill="#38bdf8">Docker + HF</text>

  <!-- Time series chart -->
  <rect x="28" y="76" width="460" height="180" rx="8" fill="#161b22" stroke="#21262d" stroke-width="1"/>
  <text x="44" y="100" font-family="monospace" font-size="11" fill="#8b949e">Anomaly Detection — Time Series</text>
  <!-- Chart line -->
  <polyline points="44,210 90,180 136,190 182,150 228,160 274,120 300,80 320,140 366,155 412,145 458,160" fill="none" stroke="#38bdf8" stroke-width="2"/>
  <!-- Anomaly markers -->
  <circle cx="274" cy="120" r="6" fill="none" stroke="#f87171" stroke-width="2"/>
  <circle cx="300" cy="80" r="6" fill="none" stroke="#f87171" stroke-width="2"/>
  <text x="268" y="115" font-family="monospace" font-size="8" fill="#f87171">⚠</text>
  <text x="294" y="75" font-family="monospace" font-size="8" fill="#f87171">⚠</text>
  <!-- Axes -->
  <line x1="44" y1="220" x2="470" y2="220" stroke="#30363d" stroke-width="1"/>
  <line x1="44" y1="100" x2="44" y2="220" stroke="#30363d" stroke-width="1"/>

  <!-- Episode table -->
  <rect x="504" y="76" width="268" height="180" rx="8" fill="#161b22" stroke="#21262d" stroke-width="1"/>
  <text x="520" y="100" font-family="monospace" font-size="11" fill="#8b949e">Benchmark Episodes</text>
  <line x1="504" y1="108" x2="772" y2="108" stroke="#21262d" stroke-width="1"/>
  <text x="516" y="122" font-family="monospace" font-size="9" fill="#6e7681">EP-ID</text>
  <text x="580" y="122" font-family="monospace" font-size="9" fill="#6e7681">Score</text>
  <text x="640" y="122" font-family="monospace" font-size="9" fill="#6e7681">Status</text>
  <text x="516" y="138" font-family="monospace" font-size="9" fill="#c9d1d9">EP-001</text>
  <text x="580" y="138" font-family="monospace" font-size="9" fill="#34d399">0.978</text>
  <text x="640" y="138" font-family="monospace" font-size="9" fill="#4ade80">✓ Pass</text>
  <text x="516" y="153" font-family="monospace" font-size="9" fill="#c9d1d9">EP-002</text>
  <text x="580" y="153" font-family="monospace" font-size="9" fill="#34d399">0.961</text>
  <text x="640" y="153" font-family="monospace" font-size="9" fill="#4ade80">✓ Pass</text>
  <text x="516" y="168" font-family="monospace" font-size="9" fill="#c9d1d9">EP-003</text>
  <text x="580" y="168" font-family="monospace" font-size="9" fill="#f59e0b">0.743</text>
  <text x="640" y="168" font-family="monospace" font-size="9" fill="#fbbf24">⚠ Warn</text>
  <text x="516" y="183" font-family="monospace" font-size="9" fill="#c9d1d9">EP-004</text>
  <text x="580" y="183" font-family="monospace" font-size="9" fill="#34d399">0.992</text>
  <text x="640" y="183" font-family="monospace" font-size="9" fill="#4ade80">✓ Pass</text>
  <text x="516" y="198" font-family="monospace" font-size="9" fill="#6e7681">... 29 more episodes</text>
  <text x="516" y="240" font-family="monospace" font-size="20" fill="#38bdf8" font-weight="700">33</text>
  <text x="548" y="240" font-family="monospace" font-size="10" fill="#6e7681"> / 33 complete</text>

  <!-- Stat boxes -->
  <rect x="28" y="275" width="120" height="72" rx="8" fill="#161b22" stroke="#21262d" stroke-width="1"/>
  <text x="88" y="298" text-anchor="middle" font-family="monospace" font-size="10" fill="#8b949e">Episodes</text>
  <text x="88" y="326" text-anchor="middle" font-family="monospace" font-size="26" fill="#38bdf8" font-weight="700">33</text>

  <rect x="164" y="275" width="120" height="72" rx="8" fill="#161b22" stroke="#21262d" stroke-width="1"/>
  <text x="224" y="298" text-anchor="middle" font-family="monospace" font-size="10" fill="#8b949e">Framework</text>
  <text x="224" y="322" text-anchor="middle" font-family="monospace" font-size="14" fill="#0ea5e9" font-weight="700">FastAPI</text>

  <rect x="300" y="275" width="120" height="72" rx="8" fill="#161b22" stroke="#21262d" stroke-width="1"/>
  <text x="360" y="298" text-anchor="middle" font-family="monospace" font-size="10" fill="#8b949e">Containers</text>
  <text x="360" y="326" text-anchor="middle" font-family="monospace" font-size="26" fill="#60a5fa" font-weight="700">🐳</text>

  <rect x="436" y="275" width="120" height="72" rx="8" fill="#161b22" stroke="#21262d" stroke-width="1"/>
  <text x="496" y="298" text-anchor="middle" font-family="monospace" font-size="10" fill="#8b949e">Deployment</text>
  <text x="496" y="322" text-anchor="middle" font-family="monospace" font-size="12" fill="#a78bfa" font-weight="700">HF Spaces</text>

  <rect x="572" y="275" width="200" height="72" rx="8" fill="#161b22" stroke="#21262d" stroke-width="1"/>
  <text x="672" y="298" text-anchor="middle" font-family="monospace" font-size="10" fill="#8b949e">Avg Benchmark Score</text>
  <text x="672" y="326" text-anchor="middle" font-family="monospace" font-size="26" fill="#34d399" font-weight="700">0.974</text>

  <!-- Tags -->
  <rect x="28" y="368" width="70" height="22" rx="11" fill="#0c4a6e" opacity="0.6"/>
  <text x="63" y="383" text-anchor="middle" font-family="monospace" font-size="10" fill="#38bdf8">FastAPI</text>
  <rect x="110" y="368" width="70" height="22" rx="11" fill="#0c4a6e" opacity="0.6"/>
  <text x="145" y="383" text-anchor="middle" font-family="monospace" font-size="10" fill="#38bdf8">Docker</text>
  <rect x="192" y="368" width="80" height="22" rx="11" fill="#0c4a6e" opacity="0.6"/>
  <text x="232" y="383" text-anchor="middle" font-family="monospace" font-size="10" fill="#38bdf8">OpenEnv</text>
  <rect x="284" y="368" width="90" height="22" rx="11" fill="#064e3b" opacity="0.6"/>
  <text x="329" y="383" text-anchor="middle" font-family="monospace" font-size="10" fill="#34d399">Time-Series</text>
  <rect x="660" y="362" width="110" height="28" rx="6" fill="#166534" stroke="#16a34a" stroke-width="1"/>
  <text x="715" y="380" text-anchor="middle" font-family="monospace" font-size="11" fill="#4ade80" font-weight="600">🚀 Live on HF</text>
</svg>
