<svg xmlns="http://www.w3.org/2000/svg" width="800" height="440" viewBox="0 0 800 440">
  <defs>
    <linearGradient id="bg3" x1="0%" y1="0%" x2="100%" y2="100%">
      <stop offset="0%" style="stop-color:#141414"/>
      <stop offset="100%" style="stop-color:#1a0a0a"/>
    </linearGradient>
  </defs>
  <rect width="800" height="440" fill="url(#bg3)"/>
  <rect x="0" y="0" width="800" height="56" fill="#1a0000" opacity="0.9"/>
  <text x="28" y="36" font-family="monospace" font-size="16" fill="#e50914" font-weight="700">NETFLIX</text>
  <text x="105" y="36" font-family="monospace" font-size="13" fill="#6e7681"> OTT Content Strategy Analytics</text>
  <rect x="680" y="16" width="96" height="24" rx="4" fill="#e50914" opacity="0.2"/>
  <text x="728" y="32" text-anchor="middle" font-family="monospace" font-size="11" fill="#e50914">8,807 Titles</text>

  <!-- KPI cards -->
  <rect x="28" y="76" width="140" height="72" rx="8" fill="#1a1a1a" stroke="#333" stroke-width="1"/>
  <text x="98" y="100" text-anchor="middle" font-family="monospace" font-size="10" fill="#8b949e">Total Titles</text>
  <text x="98" y="128" text-anchor="middle" font-family="monospace" font-size="26" fill="#e50914" font-weight="700">8,807</text>

  <rect x="184" y="76" width="140" height="72" rx="8" fill="#1a1a1a" stroke="#333" stroke-width="1"/>
  <text x="254" y="100" text-anchor="middle" font-family="monospace" font-size="10" fill="#8b949e">Movies / TV</text>
  <text x="254" y="128" text-anchor="middle" font-family="monospace" font-size="22" fill="#f87171" font-weight="700">70/30</text>

  <rect x="340" y="76" width="140" height="72" rx="8" fill="#1a1a1a" stroke="#333" stroke-width="1"/>
  <text x="410" y="100" text-anchor="middle" font-family="monospace" font-size="10" fill="#8b949e">US Titles</text>
  <text x="410" y="128" text-anchor="middle" font-family="monospace" font-size="22" fill="#fb923c" font-weight="700">3,000+</text>

  <rect x="496" y="76" width="140" height="72" rx="8" fill="#1a1a1a" stroke="#333" stroke-width="1"/>
  <text x="566" y="100" text-anchor="middle" font-family="monospace" font-size="10" fill="#8b949e">India Titles</text>
  <text x="566" y="128" text-anchor="middle" font-family="monospace" font-size="22" fill="#fbbf24" font-weight="700">~900</text>

  <rect x="652" y="76" width="120" height="72" rx="8" fill="#1a1a1a" stroke="#333" stroke-width="1"/>
  <text x="712" y="100" text-anchor="middle" font-family="monospace" font-size="10" fill="#8b949e">Charts Built</text>
  <text x="712" y="128" text-anchor="middle" font-family="monospace" font-size="26" fill="#34d399" font-weight="700">10+</text>

  <!-- Genre bar chart -->
  <rect x="28" y="168" width="360" height="170" rx="8" fill="#1a1a1a" stroke="#333" stroke-width="1"/>
  <text x="44" y="190" font-family="monospace" font-size="11" fill="#8b949e">Genre Distribution</text>
  <rect x="44" y="200" width="200" height="14" rx="2" fill="#e50914" opacity="0.85"/>
  <text x="252" y="212" font-family="monospace" font-size="9" fill="#8b949e">Drama 1,840</text>
  <rect x="44" y="220" width="155" height="14" rx="2" fill="#e50914" opacity="0.65"/>
  <text x="207" y="232" font-family="monospace" font-size="9" fill="#8b949e">Comedy 1,310</text>
  <rect x="44" y="240" width="120" height="14" rx="2" fill="#e50914" opacity="0.5"/>
  <text x="172" y="252" font-family="monospace" font-size="9" fill="#8b949e">Action 980</text>
  <rect x="44" y="260" width="95" height="14" rx="2" fill="#e50914" opacity="0.4"/>
  <text x="147" y="272" font-family="monospace" font-size="9" fill="#8b949e">Documentary 810</text>
  <rect x="44" y="280" width="75" height="14" rx="2" fill="#e50914" opacity="0.3"/>
  <text x="127" y="292" font-family="monospace" font-size="9" fill="#8b949e">Thriller 750</text>
  <rect x="44" y="300" width="60" height="14" rx="2" fill="#e50914" opacity="0.25"/>
  <text x="112" y="312" font-family="monospace" font-size="9" fill="#8b949e">Romance 640</text>

  <!-- Content trend line -->
  <rect x="404" y="168" width="368" height="170" rx="8" fill="#1a1a1a" stroke="#333" stroke-width="1"/>
  <text x="420" y="190" font-family="monospace" font-size="11" fill="#8b949e">Content Growth Trend (post-2019 plateau)</text>
  <polyline points="420,308 448,295 480,278 512,255 544,240 576,220 608,210 640,208 672,207 704,207 736,207 760,207" fill="none" stroke="#e50914" stroke-width="2"/>
  <text x="640" y="200" font-family="monospace" font-size="8" fill="#f87171">← Growth plateau</text>
  <line x1="628" y1="207" x2="628" y2="308" stroke="#f87171" stroke-width="1" stroke-dasharray="3"/>
  <text x="416" y="318" font-family="monospace" font-size="8" fill="#6e7681">2014  2016  2018  2019  2020  2021  2022  2023</text>
  <line x1="420" y1="310" x2="768" y2="310" stroke="#333" stroke-width="1"/>

  <!-- Tags -->
  <rect x="28" y="358" width="70" height="22" rx="11" fill="#450a0a" opacity="0.8"/>
  <text x="63" y="373" text-anchor="middle" font-family="monospace" font-size="10" fill="#f87171">Tableau</text>
  <rect x="110" y="358" width="60" height="22" rx="11" fill="#450a0a" opacity="0.8"/>
  <text x="140" y="373" text-anchor="middle" font-family="monospace" font-size="10" fill="#f87171">Python</text>
  <rect x="182" y="358" width="60" height="22" rx="11" fill="#450a0a" opacity="0.8"/>
  <text x="212" y="373" text-anchor="middle" font-family="monospace" font-size="10" fill="#f87171">Pandas</text>
  <rect x="254" y="358" width="50" height="22" rx="11" fill="#450a0a" opacity="0.8"/>
  <text x="279" y="373" text-anchor="middle" font-family="monospace" font-size="10" fill="#f87171">SQL</text>
  <rect x="316" y="358" width="50" height="22" rx="11" fill="#450a0a" opacity="0.8"/>
  <text x="341" y="373" text-anchor="middle" font-family="monospace" font-size="10" fill="#f87171">EDA</text>
  <rect x="644" y="360" width="128" height="24" rx="6" fill="#14532d" stroke="#16a34a" stroke-width="1"/>
  <text x="708" y="376" text-anchor="middle" font-family="monospace" font-size="10" fill="#4ade80" font-weight="600">📊 Dashboard Live</text>
</svg>
