<svg xmlns="http://www.w3.org/2000/svg" width="800" height="440" viewBox="0 0 800 440">
  <defs>
    <linearGradient id="bg" x1="0%" y1="0%" x2="100%" y2="100%">
      <stop offset="0%" style="stop-color:#0d1117"/>
      <stop offset="100%" style="stop-color:#1a1040"/>
    </linearGradient>
    <linearGradient id="acc" x1="0%" y1="0%" x2="100%" y2="0%">
      <stop offset="0%" style="stop-color:#7c3aed"/>
      <stop offset="100%" style="stop-color:#3b82f6"/>
    </linearGradient>
  </defs>
  <rect width="800" height="440" fill="url(#bg)"/>
  <!-- Header -->
  <rect x="0" y="0" width="800" height="56" fill="#161b22" opacity="0.9"/>
  <text x="28" y="36" font-family="monospace" font-size="18" fill="#a78bfa" font-weight="700">SLIP</text>
  <text x="70" y="36" font-family="monospace" font-size="13" fill="#6e7681">— Churn Intelligence Platform</text>
  <rect x="680" y="16" width="96" height="24" rx="4" fill="#7c3aed" opacity="0.3"/>
  <text x="695" y="32" font-family="monospace" font-size="11" fill="#a78bfa">84% Accuracy</text>

  <!-- Pipeline boxes -->
  <rect x="28" y="80" width="100" height="44" rx="6" fill="#1e1b4b" stroke="#4c1d95" stroke-width="1"/>
  <text x="78" y="98" text-anchor="middle" font-family="monospace" font-size="9" fill="#8b949e">Source</text>
  <text x="78" y="112" text-anchor="middle" font-family="monospace" font-size="9" fill="#c4b5fd">Data</text>

  <line x1="128" y1="102" x2="160" y2="102" stroke="#7c3aed" stroke-width="1.5" stroke-dasharray="3"/>
  <polygon points="158,98 166,102 158,106" fill="#7c3aed"/>

  <rect x="160" y="80" width="100" height="44" rx="6" fill="#1e1b4b" stroke="#4c1d95" stroke-width="1"/>
  <text x="210" y="98" text-anchor="middle" font-family="monospace" font-size="9" fill="#8b949e">Segment</text>
  <text x="210" y="112" text-anchor="middle" font-family="monospace" font-size="9" fill="#c4b5fd">Agent</text>

  <line x1="260" y1="102" x2="292" y2="102" stroke="#7c3aed" stroke-width="1.5" stroke-dasharray="3"/>
  <polygon points="290,98 298,102 290,106" fill="#7c3aed"/>

  <rect x="292" y="80" width="100" height="44" rx="6" fill="#1e1b4b" stroke="#4c1d95" stroke-width="1"/>
  <text x="342" y="98" text-anchor="middle" font-family="monospace" font-size="9" fill="#8b949e">FAISS</text>
  <text x="342" y="112" text-anchor="middle" font-family="monospace" font-size="9" fill="#c4b5fd">RAG</text>

  <line x1="392" y1="102" x2="424" y2="102" stroke="#7c3aed" stroke-width="1.5" stroke-dasharray="3"/>
  <polygon points="422,98 430,102 422,106" fill="#7c3aed"/>

  <rect x="424" y="80" width="100" height="44" rx="6" fill="#1e1b4b" stroke="#4c1d95" stroke-width="1"/>
  <text x="474" y="98" text-anchor="middle" font-family="monospace" font-size="9" fill="#8b949e">RF Model</text>
  <text x="474" y="112" text-anchor="middle" font-family="monospace" font-size="9" fill="#c4b5fd">SMOTE</text>

  <line x1="524" y1="102" x2="556" y2="102" stroke="#7c3aed" stroke-width="1.5" stroke-dasharray="3"/>
  <polygon points="554,98 562,102 554,106" fill="#7c3aed"/>

  <rect x="556" y="80" width="100" height="44" rx="6" fill="#1e1b4b" stroke="#4c1d95" stroke-width="1"/>
  <text x="606" y="98" text-anchor="middle" font-family="monospace" font-size="9" fill="#8b949e">Retention</text>
  <text x="606" y="112" text-anchor="middle" font-family="monospace" font-size="9" fill="#c4b5fd">Strategy</text>

  <!-- Big metric -->
  <text x="400" y="190" text-anchor="middle" font-family="monospace" font-size="72" fill="url(#acc)" font-weight="900" opacity="0.9">84%</text>
  <text x="400" y="220" text-anchor="middle" font-family="monospace" font-size="14" fill="#6e7681">Random Forest Accuracy · SMOTE · Feature Engineering</text>

  <!-- Stat boxes -->
  <rect x="40" y="250" width="160" height="80" rx="8" fill="#161b22" stroke="#30363d" stroke-width="1"/>
  <text x="120" y="278" text-anchor="middle" font-family="monospace" font-size="11" fill="#8b949e">Customer Segments</text>
  <text x="120" y="306" text-anchor="middle" font-family="monospace" font-size="28" fill="#a78bfa" font-weight="700">5</text>
  <text x="120" y="322" text-anchor="middle" font-family="monospace" font-size="10" fill="#6e7681">Behavioral clusters</text>

  <rect x="220" y="250" width="160" height="80" rx="8" fill="#161b22" stroke="#30363d" stroke-width="1"/>
  <text x="300" y="278" text-anchor="middle" font-family="monospace" font-size="11" fill="#8b949e">FAISS Vectors</text>
  <text x="300" y="306" text-anchor="middle" font-family="monospace" font-size="28" fill="#60a5fa" font-weight="700">512d</text>
  <text x="300" y="322" text-anchor="middle" font-family="monospace" font-size="10" fill="#6e7681">Embedding dimension</text>

  <rect x="400" y="250" width="160" height="80" rx="8" fill="#161b22" stroke="#30363d" stroke-width="1"/>
  <text x="480" y="278" text-anchor="middle" font-family="monospace" font-size="11" fill="#8b949e">LangGraph Nodes</text>
  <text x="480" y="306" text-anchor="middle" font-family="monospace" font-size="28" fill="#34d399" font-weight="700">7</text>
  <text x="480" y="322" text-anchor="middle" font-family="monospace" font-size="10" fill="#6e7681">Agentic pipeline</text>

  <rect x="580" y="250" width="160" height="80" rx="8" fill="#161b22" stroke="#30363d" stroke-width="1"/>
  <text x="660" y="278" text-anchor="middle" font-family="monospace" font-size="11" fill="#8b949e">Analyst Time ↓</text>
  <text x="660" y="306" text-anchor="middle" font-family="monospace" font-size="28" fill="#f59e0b" font-weight="700">60%</text>
  <text x="660" y="322" text-anchor="middle" font-family="monospace" font-size="10" fill="#6e7681">RAG auto-generate</text>

  <!-- Tags -->
  <rect x="40" y="360" width="100" height="22" rx="11" fill="#4c1d95" opacity="0.5"/>
  <text x="90" y="375" text-anchor="middle" font-family="monospace" font-size="10" fill="#c4b5fd">LangGraph</text>
  <rect x="152" y="360" width="60" height="22" rx="11" fill="#1e3a5f" opacity="0.5"/>
  <text x="182" y="375" text-anchor="middle" font-family="monospace" font-size="10" fill="#60a5fa">FAISS</text>
  <rect x="224" y="360" width="80" height="22" rx="11" fill="#1e3a5f" opacity="0.5"/>
  <text x="264" y="375" text-anchor="middle" font-family="monospace" font-size="10" fill="#60a5fa">Scikit-learn</text>
  <rect x="316" y="360" width="70" height="22" rx="11" fill="#064e3b" opacity="0.5"/>
  <text x="351" y="375" text-anchor="middle" font-family="monospace" font-size="10" fill="#34d399">SMOTE</text>
  <rect x="398" y="360" width="60" height="22" rx="11" fill="#064e3b" opacity="0.5"/>
  <text x="428" y="375" text-anchor="middle" font-family="monospace" font-size="10" fill="#34d399">Python</text>

  <!-- Live badge -->
  <rect x="660" y="355" width="100" height="28" rx="6" fill="#166534" stroke="#16a34a" stroke-width="1"/>
  <text x="710" y="373" text-anchor="middle" font-family="monospace" font-size="11" fill="#4ade80" font-weight="600">🚀 Live on HF</text>
</svg>
